<svg width="534" height="534" viewBox="0 0 534 534" fill="none" xmlns="http://www.w3.org/2000/svg">
<g id="bnb 1" clip-path="url(#clip0_2_2)">
<g id="Group 1">
<path id="Vector" d="M266.997 533.663C414.273 533.663 533.663 414.273 533.663 266.997C533.663 119.721 414.273 0.330002 266.997 0.330002C119.721 0.330002 0.329987 119.721 0.329987 266.997C0.329987 414.273 119.721 533.663 266.997 533.663Z" fill="#0B0E11"/>
<g id="Group 2">
<path id="Vector_2" d="M204.855 241.465L266.999 179.322L329.175 241.497L365.334 205.336L266.999 107L168.695 205.304L204.855 241.465ZM143.161 230.835L179.321 266.995L143.159 303.157L107 266.997L143.161 230.835ZM204.855 292.531L266.999 354.672L329.173 292.5L365.353 328.642L365.334 328.66L266.999 426.996L168.694 328.692L168.643 328.643L204.855 292.531ZM427 267.002L390.84 303.161L354.681 267.002L390.84 230.842L427 267.002Z" fill="#F0B90B"/>
<path id="Vector_3" d="M303.675 266.98H303.691L266.998 230.286L230.287 266.997L230.337 267.049L266.998 303.71L303.708 266.997L303.675 266.98Z" fill="#F0B90B"/>
</g>
</g>
</g>
<defs>
<clipPath id="clip0_2_2">
<rect width="533.33" height="533.33" fill="white" transform="translate(0.329987 0.330002)"/>
</clipPath>
</defs>
</svg>
