<?xml version="1.0" encoding="UTF-8"?>
<!DOCTYPE svg PUBLIC "-//W3C//DTD SVG 1.1//EN" "http://www.w3.org/Graphics/SVG/1.1/DTD/svg11.dtd">
<!-- Creator: CorelDRAW X6 -->
<svg xmlns="http://www.w3.org/2000/svg" xml:space="preserve" width="5.33443in" height="5.07334in" version="1.1" style="shape-rendering:geometricPrecision; text-rendering:geometricPrecision; image-rendering:optimizeQuality; fill-rule:evenodd; clip-rule:evenodd"
viewBox="0 0 1373 1306"
 xmlns:xlink="http://www.w3.org/1999/xlink">
 <defs>
  <style type="text/css">
   <![CDATA[
    .str1 {stroke:#00AFEF;stroke-width:0.772349}
    .str0 {stroke:#F58634;stroke-width:0.772349}
    .fil1 {fill:none}
    .fil2 {fill:#00AFEF}
    .fil0 {fill:#F58634}
   ]]>
  </style>
    <clipPath id="id0">
     <path d="M687 0l343 249 343 249 -131 404 -131 404 -424 0 -424 0 -131 -404 -131 -404 343 -249 343 -249zm0 163l267 194 267 194 -102 314 -102 314 -330 0 -330 0 -102 -314 -102 -314 267 -194 267 -194z"/>
    </clipPath>
    <clipPath id="id1">
     <path d="M687 0l343 249 343 249 -131 404 -131 404 -424 0 -424 0 -131 -404 -131 -404 343 -249 343 -249zm0 163l267 194 267 194 -102 314 -102 314 -330 0 -330 0 -102 -314 -102 -314 267 -194 267 -194z"/>
    </clipPath>
    <clipPath id="id2">
     <path d="M643 495c-65,65 -107,196 -89,331l-48 48c-35,35 -29,81 -15,123l18 55 87 -87 91 0 91 0 87 87 18 -55c14,-41 20,-88 -15,-123l-48 -48c18,-135 -24,-266 -89,-331l-44 -44 -44 44zm13 168c17,-17 44,-17 60,0 17,17 17,44 0,60 -17,17 -44,17 -60,0 -17,-17 -17,-44 0,-60zm-15 378l0 30c0,44 45,106 45,106 0,0 45,-57 45,-106l0 -30 -91 0z"/>
    </clipPath>
    <clipPath id="id3">
     <path d="M643 495c-65,65 -107,196 -89,331l-48 48c-35,35 -29,81 -15,123l18 55 87 -87 91 0 91 0 87 87 18 -55c14,-41 20,-88 -15,-123l-48 -48c18,-135 -24,-266 -89,-331l-44 -44 -44 44zm13 168c17,-17 44,-17 60,0 17,17 17,44 0,60 -17,17 -44,17 -60,0 -17,-17 -17,-44 0,-60zm-15 378l0 30c0,44 45,106 45,106 0,0 45,-57 45,-106l0 -30 -91 0z"/>
    </clipPath>
 </defs>
 <g id="Layer_x0020_1">
  <metadata id="CorelCorpID_0Corel-Layer"/>
  <g id="_411762312">
   <path class="fil0" d="M687 0l343 249 343 249 -131 404 -131 404 -424 0 -424 0 -131 -404 -131 -404 343 -249 343 -249zm0 163l267 194 267 194 -102 314 -102 314 -330 0 -330 0 -102 -314 -102 -314 267 -194 267 -194z"/>
   <g style="clip-path:url(#id0)">
   </g>
   <path id="1" class="fil1" d="M687 0l343 249 343 249 -131 404 -131 404 -424 0 -424 0 -131 -404 -131 -404 343 -249 343 -249zm0 163l267 194 267 194 -102 314 -102 314 -330 0 -330 0 -102 -314 -102 -314 267 -194 267 -194z"/>
   <g style="clip-path:url(#id1)">
    <path id="2" class="fil1 str0" d="M0 0l1373 1306m0 -1306l-1373 1306"/>
   </g>
   <path class="fil2" d="M643 495c-65,65 -107,196 -89,331l-48 48c-35,35 -29,81 -15,123l18 55 87 -87 91 0 91 0 87 87 18 -55c14,-41 20,-88 -15,-123l-48 -48c18,-135 -24,-266 -89,-331l-44 -44 -44 44zm13 168c17,-17 44,-17 60,0 17,17 17,44 0,60 -17,17 -44,17 -60,0 -17,-17 -17,-44 0,-60zm-15 378l0 30c0,44 45,106 45,106 0,0 45,-57 45,-106l0 -30 -91 0z"/>
   <g style="clip-path:url(#id2)">
   </g>
   <path id="1" class="fil1 str1" d="M643 495c-65,65 -107,196 -89,331l-48 48c-35,35 -29,81 -15,123l18 55 87 -87 91 0 91 0 87 87 18 -55c14,-41 20,-88 -15,-123l-48 -48c18,-135 -24,-266 -89,-331l-44 -44 -44 44zm13 168c17,-17 44,-17 60,0 17,17 17,44 0,60 -17,17 -44,17 -60,0 -17,-17 -17,-44 0,-60zm-15 378l0 30c0,44 45,106 45,106 0,0 45,-57 45,-106l0 -30 -91 0z"/>
   <g style="clip-path:url(#id3)">
    <path id="2" class="fil1 str1" d="M479 452l415 725m0 -725l-415 725"/>
   </g>
  </g>
 </g>
</svg>
